<svg xmlns="http://www.w3.org/2000/svg" width="512" height="512" viewBox="0 0 512 512">
<defs>
 <radialGradient id="bg" cx="50%" cy="45%" r="70%"><stop offset="0" stop-color="#2a0806"/><stop offset="1" stop-color="#070202"/></radialGradient>
 <filter id="glow" x="-20%" y="-20%" width="140%" height="140%"><feGaussianBlur stdDeviation="6" result="b"/><feMerge><feMergeNode in="b"/><feMergeNode in="SourceGraphic"/></feMerge></filter>
 <pattern id="scan" width="4" height="4" patternUnits="userSpaceOnUse"><rect width="4" height="2" fill="#000" opacity="0.28"/></pattern>
</defs>
<rect width="512" height="512" fill="url(#bg)"/>
<g transform="translate(53 144)" filter="url(#glow)"><rect x="42" y="0" width="14" height="14" fill="#ff5a48"/><rect x="56" y="0" width="14" height="14" fill="#ff5a48"/><rect x="70" y="0" width="14" height="14" fill="#ff5a48"/><rect x="84" y="0" width="14" height="14" fill="#ff5a48"/><rect x="42" y="14" width="14" height="14" fill="#ff5a48"/><rect x="56" y="14" width="14" height="14" fill="#ff5a48"/><rect x="70" y="14" width="14" height="14" fill="#ff5a48"/><rect x="84" y="14" width="14" height="14" fill="#ff5a48"/><rect x="350" y="14" width="14" height="14" fill="#ff9a85"/><rect x="364" y="14" width="14" height="14" fill="#ff9a85"/><rect x="0" y="28" width="14" height="14" fill="#ff5a48"/><rect x="14" y="28" width="14" height="14" fill="#ff5a48"/><rect x="28" y="28" width="14" height="14" fill="#ff5a48"/><rect x="42" y="28" width="14" height="14" fill="#ff5a48"/><rect x="56" y="28" width="14" height="14" fill="#ff5a48"/><rect x="70" y="28" width="14" height="14" fill="#ff5a48"/><rect x="84" y="28" width="14" height="14" fill="#ff5a48"/><rect x="98" y="28" width="14" height="14" fill="#ff5a48"/><rect x="112" y="28" width="14" height="14" fill="#ff5a48"/><rect x="126" y="28" width="14" height="14" fill="#ff5a48"/><rect x="140" y="28" width="14" height="14" fill="#ff5a48"/><rect x="336" y="28" width="14" height="14" fill="#ff9a85"/><rect x="378" y="28" width="14" height="14" fill="#ff9a85"/><rect x="0" y="42" width="14" height="14" fill="#ff5a48"/><rect x="14" y="42" width="14" height="14" fill="#ffd0c0"/><rect x="28" y="42" width="14" height="14" fill="#ffd0c0"/><rect x="42" y="42" width="14" height="14" fill="#ff5a48"/><rect x="56" y="42" width="14" height="14" fill="#ff5a48"/><rect x="70" y="42" width="14" height="14" fill="#ff5a48"/><rect x="84" y="42" width="14" height="14" fill="#ff5a48"/><rect x="98" y="42" width="14" height="14" fill="#ff5a48"/><rect x="112" y="42" width="14" height="14" fill="#ff5a48"/><rect x="126" y="42" width="14" height="14" fill="#ff5a48"/><rect x="140" y="42" width="14" height="14" fill="#ff5a48"/><rect x="154" y="42" width="14" height="14" fill="#ff5a48"/><rect x="168" y="42" width="14" height="14" fill="#ff5a48"/><rect x="196" y="42" width="14" height="14" fill="#ffd0c0"/><rect x="210" y="42" width="14" height="14" fill="#ffd0c0"/><rect x="238" y="42" width="14" height="14" fill="#ffd0c0"/><rect x="252" y="42" width="14" height="14" fill="#ffd0c0"/><rect x="280" y="42" width="14" height="14" fill="#ffd0c0"/><rect x="294" y="42" width="14" height="14" fill="#ffd0c0"/><rect x="322" y="42" width="14" height="14" fill="#ff9a85"/><rect x="350" y="42" width="14" height="14" fill="#ff9a85"/><rect x="364" y="42" width="14" height="14" fill="#ff9a85"/><rect x="392" y="42" width="14" height="14" fill="#ff9a85"/><rect x="0" y="56" width="14" height="14" fill="#ff5a48"/><rect x="14" y="56" width="14" height="14" fill="#ff5a48"/><rect x="28" y="56" width="14" height="14" fill="#ff5a48"/><rect x="42" y="56" width="14" height="14" fill="#ff5a48"/><rect x="56" y="56" width="14" height="14" fill="#ff5a48"/><rect x="70" y="56" width="14" height="14" fill="#ff5a48"/><rect x="84" y="56" width="14" height="14" fill="#ff5a48"/><rect x="98" y="56" width="14" height="14" fill="#ff5a48"/><rect x="112" y="56" width="14" height="14" fill="#ff5a48"/><rect x="126" y="56" width="14" height="14" fill="#ff5a48"/><rect x="140" y="56" width="14" height="14" fill="#ff5a48"/><rect x="154" y="56" width="14" height="14" fill="#ff5a48"/><rect x="168" y="56" width="14" height="14" fill="#ff5a48"/><rect x="322" y="56" width="14" height="14" fill="#ff9a85"/><rect x="350" y="56" width="14" height="14" fill="#ff9a85"/><rect x="364" y="56" width="14" height="14" fill="#ff9a85"/><rect x="392" y="56" width="14" height="14" fill="#ff9a85"/><rect x="0" y="70" width="14" height="14" fill="#ff5a48"/><rect x="14" y="70" width="14" height="14" fill="#ff5a48"/><rect x="28" y="70" width="14" height="14" fill="#ff5a48"/><rect x="42" y="70" width="14" height="14" fill="#ff5a48"/><rect x="56" y="70" width="14" height="14" fill="#ff5a48"/><rect x="70" y="70" width="14" height="14" fill="#ff5a48"/><rect x="84" y="70" width="14" height="14" fill="#ff5a48"/><rect x="98" y="70" width="14" height="14" fill="#ff5a48"/><rect x="112" y="70" width="14" height="14" fill="#ff5a48"/><rect x="126" y="70" width="14" height="14" fill="#ff5a48"/><rect x="140" y="70" width="14" height="14" fill="#ff5a48"/><rect x="336" y="70" width="14" height="14" fill="#ff9a85"/><rect x="378" y="70" width="14" height="14" fill="#ff9a85"/><rect x="28" y="84" width="14" height="14" fill="#ff5a48"/><rect x="42" y="84" width="14" height="14" fill="#ff5a48"/><rect x="56" y="84" width="14" height="14" fill="#ff5a48"/><rect x="98" y="84" width="14" height="14" fill="#ff5a48"/><rect x="112" y="84" width="14" height="14" fill="#ff5a48"/><rect x="350" y="84" width="14" height="14" fill="#ff9a85"/><rect x="364" y="84" width="14" height="14" fill="#ff9a85"/><rect x="28" y="98" width="14" height="14" fill="#ff5a48"/><rect x="42" y="98" width="14" height="14" fill="#ff5a48"/><rect x="56" y="98" width="14" height="14" fill="#ff5a48"/><rect x="98" y="98" width="14" height="14" fill="#ff5a48"/><rect x="112" y="98" width="14" height="14" fill="#ff5a48"/><rect x="28" y="112" width="14" height="14" fill="#ff5a48"/><rect x="42" y="112" width="14" height="14" fill="#ff5a48"/><rect x="56" y="112" width="14" height="14" fill="#ff5a48"/><rect x="84" y="154" width="14" height="14" fill="#ffd0c0"/><rect x="98" y="154" width="14" height="14" fill="#ffd0c0"/><rect x="112" y="154" width="14" height="14" fill="#ffd0c0"/><rect x="126" y="154" width="14" height="14" fill="#ffd0c0"/><rect x="140" y="154" width="14" height="14" fill="#ffd0c0"/><rect x="196" y="154" width="14" height="14" fill="#ffd0c0"/><rect x="210" y="154" width="14" height="14" fill="#ffd0c0"/><rect x="224" y="154" width="14" height="14" fill="#ffd0c0"/><rect x="238" y="154" width="14" height="14" fill="#ffd0c0"/><rect x="112" y="168" width="14" height="14" fill="#ffd0c0"/><rect x="196" y="168" width="14" height="14" fill="#ffd0c0"/><rect x="252" y="168" width="14" height="14" fill="#ffd0c0"/><rect x="112" y="182" width="14" height="14" fill="#ffd0c0"/><rect x="196" y="182" width="14" height="14" fill="#ffd0c0"/><rect x="210" y="182" width="14" height="14" fill="#ffd0c0"/><rect x="224" y="182" width="14" height="14" fill="#ffd0c0"/><rect x="238" y="182" width="14" height="14" fill="#ffd0c0"/><rect x="112" y="196" width="14" height="14" fill="#ffd0c0"/><rect x="196" y="196" width="14" height="14" fill="#ffd0c0"/><rect x="252" y="196" width="14" height="14" fill="#ffd0c0"/><rect x="112" y="210" width="14" height="14" fill="#ffd0c0"/><rect x="196" y="210" width="14" height="14" fill="#ffd0c0"/><rect x="210" y="210" width="14" height="14" fill="#ffd0c0"/><rect x="224" y="210" width="14" height="14" fill="#ffd0c0"/><rect x="238" y="210" width="14" height="14" fill="#ffd0c0"/></g>
<rect width="512" height="512" fill="url(#scan)"/>
</svg>